<?xml version="1.0" encoding="utf-8"?>
<!-- Generator: Adobe Illustrator 28.0.0, SVG Export Plug-In . SVG Version: 6.00 Build 0)  -->
<svg version="1.1" id="Calque_1" xmlns="http://www.w3.org/2000/svg" xmlns:xlink="http://www.w3.org/1999/xlink" x="0px" y="0px"
	 viewBox="0 0 407.01 305.35" style="enable-background:new 0 0 407.01 305.35;" xml:space="preserve">
<style type="text/css">
	.st0{display:none;fill:#213251;}
	.st1{fill:#FFFFFF;}
	.st2{fill:#B86FC9;}
	.st3{fill:#ED5C58;}
	.st4{fill:#F7D74F;}
	.st5{fill:#55C652;}
	.st6{fill:#3CB9E5;}
</style>
<rect x="647.07" y="-227.04" class="st0" width="841.89" height="754.4"/>
<circle class="st1" cx="113.71" cy="30.16" r="18.68"/>
<g id="_x3C_Répétition_radiale_x3E__00000124163267127307526810000016303922038660037786_">
	<circle class="st2" cx="360.61" cy="126.7" r="19.84"/>
</g>
<g id="_x3C_Répétition_radiale_x3E__00000120557443251726769440000008673286733094409140_">
	<circle class="st3" cx="376.25" cy="172.69" r="19.84"/>
</g>
<g id="_x3C_Répétition_radiale_x3E__00000070120025724880859820000018066434586777576600_">
	<circle class="st4" cx="366.8" cy="220.35" r="19.84"/>
</g>
<g id="_x3C_Répétition_radiale_x3E__00000011727502551018847410000009037038171496468891_">
	<circle class="st5" cx="334.79" cy="256.89" r="19.84"/>
</g>
<g id="_x3C_Répétition_radiale_x3E__00000115499679907694099130000017914689472406900410_">
	<circle class="st6" cx="288.8" cy="272.53" r="19.84"/>
</g>
<g>
	<path class="st1" d="M98.39,151.68v19.73c0,13.64-5.1,21.7-10.09,25.82c-5.85,4.83-14.45,6.9-20.59,5.71
		c-9.73-1.88-15.12-7.28-17.94-11.48c-3.75-5.6-5.14-12.52-3.83-18.98c2.88-14.15,14.89-23.66,37.4-23.66l10.87,0v-0.01h39.34v0
		c2.85,0,5.78,0,8.81,0l0-31c-4.52,0-8.84,0-12.98,0v0h-31v0l-15.04,0c-34.09,0-61.96,19.93-67.78,48.47
		c-2.96,14.52,0.12,29.98,8.44,42.41c8.61,12.87,22.05,21.64,37.83,24.68c15.31,2.95,32.27-1.73,45.35-12.53
		c14.32-11.82,22.21-29.38,22.21-49.44v-19.73H98.39z"/>
	<path class="st1" d="M129.39,114.94V70.18c0-8.56-6.94-15.5-15.5-15.5s-15.5,6.94-15.5,15.5v44.76H129.39z"/>
	<path class="st1" d="M222.64,202.3c-31.47-3.32-46.1-29.1-46.44-53.45c0.01,0,0.04-32.68,0.04-32.68s-0.05-3.77-0.02-5.46
		c0.14-9.77-0.74-15.53,5.17-21.47c0.94-0.94,2.56-2.19,5.13-2.95c1.6-0.47,3.45-0.83,5.61-0.73c3.2,0.15,6.2,1.2,8.44,3.05
		c1.4,1.16,2.56,2.66,3.26,4c2.02,3.86,2.8,10.4-0.53,15.61c-3.24,5.07-8.52,8.36-24.18,9.35v31.16
		c19.11-0.96,36.37-5.32,48.84-22.78c10-14,11.32-32.21,3.44-47.53c-7.65-14.86-22.07-23.74-38.59-23.74c0,0,0,0-0.01,0
		c-13.07,0-24.35,4.41-32.61,12.75c-9.83,9.93-15.15,25.42-14.96,43.59c0.02,2.05,0.03,4.32,0.03,6.79
		c-0.01,0-0.01,32.34-0.01,32.34c0.48,21.78,8.22,42,21.93,57.13c13.96,15.4,33.46,24.51,55.47,26.11L222.64,202.3z"/>
	<path class="st1" d="M256,261.02c0.17,0.2,0.34,0.4,0.49,0.61v12.72c0,8.56-6.94,15.5-15.5,15.5s-15.5-6.94-15.5-15.5V261.3
		c2.92-3.58,7.09-6.16,12-7c1.14-0.2,2.27-0.29,3.39-0.29c3.55,0,6.96,0.96,9.91,2.66c0.49,0.28,0.96,0.59,1.43,0.92
		c0.93,0.64,1.81,1.38,2.62,2.18C255.25,260.17,255.63,260.59,256,261.02z"/>
	<path class="st1" d="M339.71,172.8c0,15.8-5.92,30.46-16.65,41.26c-16.1,16.2-38.84,19.6-55.09,19.6h-8.59v-31h8.59
		c21.38,0,31.67-7.06,36.54-14.73c3-4.17,4.76-9.28,4.76-14.8c0-14.04-11.39-25.43-25.43-25.43c-13.89,0-24.18,11.5-26.27,24.95
		c-0.8,5.9-1.08,12.71-1.08,21.41v63.12c-4.1-3.86-9.61-6.17-15.61-6.17c-1.3,0-2.61,0.11-3.9,0.33c-4.45,0.77-8.38,2.78-11.49,5.63
		v-62.91c0-20.28,3.53-36.88,10.49-49.34c9.82-17.6,26.14-26.91,47.19-26.91C315.4,117.81,339.71,141.45,339.71,172.8z"/>
</g>
<g id="_x3C_Répétition_radiale_x3E__00000051364478411969115500000015743105911810316929_">
	<g>
		<path class="st1" d="M244.23,293.4c-0.57,0.1-1.14,0.18-1.71,0.22c-2.67,0.23-5.27-0.09-7.7-0.87c-0.91-0.28-1.79-0.64-2.64-1.05
			c-0.34-0.17-0.67-0.34-0.99-0.52c-0.18-0.1-0.36-0.21-0.54-0.32c-0.53-0.32-1.05-0.66-1.55-1.04c-3.99-2.92-6.89-7.34-7.79-12.6
			c-1.02-5.89,0.68-11.63,4.18-15.92c2.92-3.58,7.09-6.16,12-7c1.14-0.2,2.27-0.29,3.39-0.29c3.55,0,6.96,0.96,9.91,2.66
			c0.49,0.29,0.97,0.59,1.43,0.92c0.93,0.64,1.81,1.38,2.62,2.18c0.4,0.4,0.79,0.82,1.16,1.25c0.17,0.2,0.34,0.4,0.49,0.61
			c0.02,0.02,0.04,0.04,0.05,0.06c0.35,0.45,0.69,0.92,1,1.4c1.4,2.18,2.4,4.67,2.87,7.39C262.27,281.28,255.03,291.54,244.23,293.4
			z"/>
		<path class="st1" d="M244.23,293.4c-0.57,0.1-1.14,0.18-1.71,0.22c-0.57,0.06-1.13,0.08-1.69,0.08c-2.08,0-4.1-0.33-6.01-0.95
			c-0.91-0.28-1.79-0.64-2.64-1.05c-0.34-0.16-0.67-0.34-0.99-0.52c-0.18-0.1-0.36-0.21-0.54-0.32c-0.54-0.31-1.05-0.66-1.55-1.04
			c-3.99-2.92-6.89-7.34-7.79-12.6c-1.02-5.89,0.68-11.63,4.18-15.92c2.92-3.58,7.09-6.16,12-7c1.14-0.2,2.27-0.29,3.39-0.29
			c3.55,0,6.96,0.96,9.91,2.66c0.49,0.28,0.96,0.59,1.43,0.92c0.93,0.64,1.81,1.38,2.62,2.18c0.41,0.4,0.79,0.82,1.16,1.25
			c0.17,0.2,0.34,0.4,0.49,0.61c0.02,0.02,0.04,0.04,0.05,0.06c0.35,0.45,0.69,0.92,1,1.4c1.4,2.18,2.4,4.67,2.87,7.39
			C262.27,281.28,255.03,291.54,244.23,293.4z"/>
	</g>
</g>
</svg>
