<?xml version="1.0" encoding="utf-8"?>
<!-- Generator: Adobe Illustrator 27.0.0, SVG Export Plug-In . SVG Version: 6.00 Build 0)  -->
<svg version="1.1" id="Layer_2" xmlns="http://www.w3.org/2000/svg" xmlns:xlink="http://www.w3.org/1999/xlink" x="0px" y="0px"
	 viewBox="0 0 234 155" style="enable-background:new 0 0 234 155;" xml:space="preserve">
<style type="text/css">
	.st0{fill:#FFFFFF;}
</style>
<g id="_ÎÓÈ_1">
	<g>
		<path class="st0" d="M16.5,0h201c9.1,0,16.5,7.4,16.5,16.5v0c0,9.1-7.4,16.5-16.5,16.5h-201C7.4,33,0,25.6,0,16.5v0
			C0,7.4,7.4,0,16.5,0z"/>
		<path class="st0" d="M16.5,122h130c9.1,0,16.5,7.4,16.5,16.5v0c0,9.1-7.4,16.5-16.5,16.5h-130C7.4,155,0,147.6,0,138.5v0
			C0,129.4,7.4,122,16.5,122z"/>
		<path class="st0" d="M16.5,61h170c9.1,0,16.5,7.4,16.5,16.5v0c0,9.1-7.4,16.5-16.5,16.5h-170C7.4,94,0,86.6,0,77.5v0
			C0,68.4,7.4,61,16.5,61z"/>
	</g>
</g>
</svg>
